<?xml version="1.0" encoding="UTF-8"?>
<svg version="1.1" xmlns="http://www.w3.org/2000/svg" width="640" height="640">
<path d="M0 0 C211.2 0 422.4 0 640 0 C640 211.2 640 422.4 640 640 C428.8 640 217.6 640 0 640 C0 428.8 0 217.6 0 0 Z " fill="#7520ED" transform="translate(0,0)"/>
<path d="M0 0 C1.28197266 -0.05994141 1.28197266 -0.05994141 2.58984375 -0.12109375 C6.16863254 0.6873846 7.07337572 2.42166631 9.0625 5.4375 C9.56274599 8.30451208 9.56274599 8.30451208 9.56307125 11.52326298 C9.57288554 12.75342327 9.58269983 13.98358357 9.59281152 15.25102144 C9.58347273 16.61307466 9.57375718 17.97512533 9.56370544 19.33717346 C9.56759819 20.78644845 9.57323842 22.23571962 9.58047634 23.68498176 C9.59525286 27.66805063 9.58503695 31.65072505 9.57073963 35.63378131 C9.55964622 39.92899019 9.57156697 44.22414299 9.58058167 48.51934814 C9.59452693 56.93358162 9.58694864 65.3476652 9.57190608 73.76189155 C9.555062 83.55586631 9.55825418 93.34980356 9.56200016 103.14378833 C9.56788102 120.61533909 9.5536979 138.08681782 9.52905273 155.55834961 C9.50512763 172.5212677 9.49804962 189.48408955 9.50854492 206.44702148 C9.51994742 224.90933949 9.52189274 243.37161297 9.50744683 261.83393043 C9.50592095 263.80155336 9.50440059 265.7691763 9.50288582 267.73679924 C9.502128 268.70496416 9.50137019 269.67312907 9.50058941 270.67063232 C9.4958417 277.50164065 9.49770144 284.33262913 9.50195122 291.16363716 C9.50687163 299.48468117 9.50092139 307.80563408 9.48105692 316.1266572 C9.47116757 320.37421518 9.46609747 324.6216343 9.47394943 328.86919975 C9.48098509 332.75458679 9.4742516 336.6396931 9.4563458 340.525043 C9.45228753 341.93342918 9.45332418 343.34184078 9.45986467 344.75021762 C9.46797435 346.65932904 9.45594249 348.56849465 9.44281673 350.47757816 C9.4417876 351.53960361 9.44075848 352.60162905 9.43969816 353.69583708 C9.00490235 356.85614822 8.31544566 358.20135812 6.0625 360.4375 C-0.11573199 362.36186734 -3.64419329 361.46748722 -9.4375 358.6875 C-17.93941153 354.21045462 -26.03681055 348.89268568 -33.9375 343.4375 C-34.80246094 342.85355469 -35.66742188 342.26960938 -36.55859375 341.66796875 C-43.51648815 335.14422868 -46.75280406 326.62951119 -50.0625 317.875 C-52.74880158 310.87647745 -55.52360796 304.11110831 -58.9375 297.4375 C-59.62139629 295.70202123 -60.272642 293.95293636 -60.875 292.1875 C-62.57307972 287.3817377 -64.47013416 282.69820864 -66.453125 278.00390625 C-68.66428876 272.69129438 -70.78432996 267.3427801 -72.90722656 261.99438477 C-75.51343489 255.44533302 -78.21204076 248.93774201 -80.9375 242.4375 C-81.25112488 241.68950134 -81.56474976 240.94150269 -81.88787842 240.1708374 C-82.97590459 237.5760771 -84.06412411 234.98139792 -85.15234375 232.38671875 C-86.32676976 229.58603071 -87.50118208 226.78533694 -88.67553711 223.98461914 C-89.47299536 222.08341245 -90.27084479 220.1823698 -91.0690918 218.28149414 C-95.38447761 208.00393365 -99.67170744 197.72189807 -103.74829102 187.34692383 C-105.38422973 182.56674286 -105.38422973 182.56674286 -108.9375 179.4375 C-108.93473462 180.0222601 -108.93196924 180.60702021 -108.92912006 181.20950031 C-108.86289892 195.43074288 -108.81323833 209.65196236 -108.78206348 223.8733263 C-108.76658726 230.75064947 -108.74548348 237.62786979 -108.71118164 244.50512695 C-108.67811385 251.13812217 -108.66066231 257.77103838 -108.65286827 264.40411949 C-108.64731166 266.93875501 -108.63646144 269.47338447 -108.62030983 272.00797462 C-108.59863286 275.54947334 -108.59552904 279.09052605 -108.59692383 282.63208008 C-108.586138 283.68727844 -108.57535217 284.74247681 -108.5642395 285.82965088 C-108.57042549 287.27465721 -108.57042549 287.27465721 -108.57673645 288.74885559 C-108.57397107 289.58676541 -108.57120569 290.42467524 -108.56835651 291.28797626 C-109.02525491 293.94849712 -109.77755626 294.85594562 -111.9375 296.4375 C-117.36458778 296.35034969 -121.54424502 293.75888382 -126.125 291.125 C-126.89875977 290.68567139 -127.67251953 290.24634277 -128.46972656 289.79370117 C-134.43205996 286.37391641 -140.33489808 282.85411233 -146.1875 279.25 C-146.97278076 278.7758667 -147.75806152 278.3017334 -148.56713867 277.81323242 C-156.02595355 273.13304959 -161.09823383 267.93301266 -163.9375 259.4375 C-164.31781673 255.90673733 -164.31781673 255.90673733 -164.32518005 252.10630798 C-164.33325836 251.05013011 -164.33325836 251.05013011 -164.34149987 249.9726153 C-164.35572033 247.63121997 -164.34869077 245.29039473 -164.34155273 242.94897461 C-164.34725931 241.26311288 -164.35422468 239.57725501 -164.36235046 237.8914032 C-164.38026239 233.32538884 -164.37911755 228.75956685 -164.37340808 224.19352794 C-164.37031431 220.37874935 -164.37641057 216.5640076 -164.38244683 212.74923426 C-164.39648311 203.7503534 -164.39493738 194.7515675 -164.38354492 185.75268555 C-164.37205594 176.47252569 -164.3861545 167.19265457 -164.4129414 157.91253275 C-164.43509502 149.93867011 -164.44173679 141.96489814 -164.43586498 133.99100691 C-164.43249444 129.23114164 -164.43491735 124.47146159 -164.45211601 119.71162224 C-164.46757841 115.23731331 -164.46363758 110.76343267 -164.44481087 106.2891407 C-164.44112346 104.64845995 -164.44423792 103.00774751 -164.45469666 101.36709595 C-164.46789826 99.12480657 -164.45636857 96.883937 -164.43870544 94.64170837 C-164.43849616 93.38794372 -164.43828688 92.13417906 -164.43807125 90.84242153 C-163.74598354 86.1347913 -161.68149297 82.98766325 -158.14282227 79.84228516 C-150.62503812 75.0624304 -142.75807551 70.94952658 -134.875 66.8125 C-133.44183362 66.05511059 -132.00888938 65.29730069 -130.57617188 64.5390625 C-123.53059533 60.8178105 -123.53059533 60.8178105 -120.818573 59.41375732 C-119.48203812 58.72010962 -118.15077415 58.016264 -116.82327271 57.30548096 C-116.12306 56.93864197 -115.42284729 56.57180298 -114.70141602 56.19384766 C-114.06905533 55.85777496 -113.43669464 55.52170227 -112.78517151 55.17544556 C-109.55439668 53.88509935 -107.18543283 54.45699198 -103.9375 55.4375 C-99.52184045 58.33961587 -97.51258653 61.61578971 -95.375 66.3125 C-92.22378049 72.91356404 -88.852321 79.34913258 -85.3125 85.75 C-80.07945743 95.24910988 -75.0710345 104.85282181 -70.1081543 114.49536133 C-65.9484813 122.55280414 -61.65842067 130.52630476 -57.22436523 138.43603516 C-56.80356689 139.18933105 -56.38276855 139.94262695 -55.94921875 140.71875 C-55.58272217 141.36908203 -55.21622559 142.01941406 -54.83862305 142.68945312 C-53.9375 144.4375 -53.9375 144.4375 -52.9375 147.4375 C-52.93511165 146.83396855 -52.93272329 146.23043711 -52.93026257 145.60861683 C-52.87111075 130.9191987 -52.79555952 116.22992814 -52.70178509 101.54069233 C-52.6568312 94.43705542 -52.61741567 87.33346861 -52.59106445 80.22973633 C-52.56562559 73.37615497 -52.52471816 66.52280564 -52.47431374 59.66936302 C-52.45760961 57.05269323 -52.44611749 54.43598487 -52.43988609 51.81926918 C-52.43028387 48.15832711 -52.40226966 44.49795955 -52.36987305 40.8371582 C-52.37202568 39.20904205 -52.37202568 39.20904205 -52.3742218 37.54803467 C-52.25922784 28.37885926 -52.25922784 28.37885926 -48.9375 24.4375 C-47.30957031 23.14233398 -47.30957031 23.14233398 -45.515625 22.18359375 C-44.83056885 21.80976563 -44.1455127 21.4359375 -43.43969727 21.05078125 C-42.69647217 20.66277344 -41.95324707 20.27476562 -41.1875 19.875 C-40.41269287 19.45734375 -39.63788574 19.0396875 -38.83959961 18.609375 C-36.21426946 17.2016304 -33.57761971 15.81730046 -30.9375 14.4375 C-29.42857178 13.64690186 -29.42857178 13.64690186 -27.88916016 12.84033203 C-23.75312126 10.67584987 -19.61619277 8.51348063 -15.46777344 6.37280273 C-14.53094727 5.88884033 -13.59412109 5.40487793 -12.62890625 4.90625 C-11.79560791 4.47763672 -10.96230957 4.04902344 -10.10375977 3.60742188 C-3.59429274 0.09188418 -3.59429274 0.09188418 0 0 Z " fill="#FDFCFD" transform="translate(301.9375,130.5625)"/>
<path d="M0 0 C2.40437038 0.98730185 4.49989153 1.99328888 6.75 3.25 C14.29083132 7.2414448 22.00461688 10.75066946 29.8125 14.1875 C30.94461914 14.68604492 32.07673828 15.18458984 33.24316406 15.69824219 C35.45700568 16.6727469 37.67087258 17.64719416 39.88476562 18.62158203 C47.2877355 21.89722215 54.63665375 25.29151551 61.9921875 28.671875 C82.52546227 38.10854303 82.52546227 38.10854303 103.2487793 47.11791992 C109.32652451 49.68953742 115.30221462 52.43235387 121.265625 55.2578125 C124.69736002 56.87415601 128.16322283 58.40551365 131.63745117 59.92797852 C135.43566028 61.59506212 139.22090052 63.29007765 143 65 C143.75651855 65.34208496 144.51303711 65.68416992 145.29248047 66.03662109 C147.4967886 67.04591969 149.68710154 68.08067815 151.875 69.125 C152.53491943 69.425271 153.19483887 69.72554199 153.87475586 70.03491211 C158.45142396 72.26610512 160.5416564 74.59054639 163 79 C163.50120544 82.13102722 163.50120544 82.13102722 163.50170898 85.50854492 C163.51108994 86.77973679 163.52047089 88.05092865 163.53013611 89.36064148 C163.5196605 90.73392416 163.50829186 92.10720029 163.49609375 93.48046875 C163.49624885 94.89960301 163.49773971 96.31873769 163.50050354 97.73786926 C163.50188401 100.70263541 163.48938481 103.66691567 163.46655273 106.6315918 C163.43809038 110.43157095 163.44093081 114.23074821 163.45364285 118.03078747 C163.46059442 120.95704506 163.45281817 123.88311707 163.44038582 126.80935097 C163.43587167 128.21078086 163.43553421 129.61223065 163.43945122 131.01366234 C163.44235994 132.96902122 163.4237089 134.92437642 163.40405273 136.87963867 C163.39864975 137.99183273 163.39324677 139.10402679 163.38768005 140.24992371 C163 143 163 143 161.59729004 144.87088013 C158.88848929 146.78572382 156.56986973 145.99481008 153.43017578 145.52490234 C149.58281461 144.69389707 146.05991899 143.33054704 142.4375 141.8125 C140.86102528 141.17621994 139.2841948 140.54082071 137.70703125 139.90625 C136.92150879 139.5865625 136.13598633 139.266875 135.32666016 138.9375 C131.77960521 137.50825646 128.20573502 136.15467233 124.625 134.8125 C123.44164062 134.36519531 122.25828125 133.91789063 121.0390625 133.45703125 C117.63208589 132.20200802 114.19315157 131.05331969 110.74755859 129.90893555 C109.67025482 129.55083298 108.59295105 129.19273041 107.48300171 128.82377625 C106.66361115 128.55193008 105.84422058 128.28008392 105 128 C105.00276538 128.71745832 105.00553076 129.43491665 105.00837994 130.17411613 C105.074738 147.6607986 105.12432828 165.14744893 105.15543652 182.63422966 C105.17088148 191.09083463 105.19192549 199.54735536 105.22631836 208.00390625 C105.25629351 215.37776089 105.27559222 222.7515545 105.28226548 230.12546837 C105.28616405 234.02708058 105.29527632 237.92851824 105.31719017 241.83007431 C105.33768384 245.50888721 105.34380805 249.18745509 105.33932304 252.86631966 C105.34053071 254.84682988 105.35660501 256.82731396 105.3732605 258.80775452 C105.33486989 269.9799842 103.39187378 279.34918476 96 288 C93.4134816 290.33337265 90.64876261 292.26269125 87.75 294.1875 C86.14756507 295.29634326 84.54737024 296.40842948 82.94921875 297.5234375 C82.13243652 298.09030273 81.3156543 298.65716797 80.47412109 299.24121094 C76.40249019 302.13562864 72.48530846 305.22093253 68.5625 308.3125 C46.44261096 325.676601 46.44261096 325.676601 39 325 C36.39811114 321.09716672 36.71118682 317.81545888 36.7215271 313.28718567 C36.7157347 312.38624088 36.7099423 311.48529608 36.70397437 310.55704993 C36.6869148 307.52603456 36.68409274 304.4951709 36.68115234 301.46411133 C36.67185828 299.29620487 36.6616904 297.12830202 36.65071106 294.96040344 C36.62333819 289.06408257 36.60824009 283.16778567 36.59528303 277.27141786 C36.57968432 271.11342752 36.55288376 264.9554864 36.5272522 258.79753113 C36.48040657 247.13162987 36.44369048 235.46571941 36.41057932 223.79977196 C36.37239875 210.52060071 36.32297799 197.24148297 36.27259517 183.9623524 C36.1691893 156.64160482 36.0799571 129.32082555 36 102 C33.93162772 101.03455387 31.86205913 100.07167043 29.79199219 99.10986328 C28.63963074 98.57338165 27.48726929 98.03690002 26.29998779 97.48416138 C22.3474093 95.70649894 18.36089093 94.23336406 14.25 92.875 C8.95950658 91.06889419 3.79629317 89.18181671 -1.26953125 86.80078125 C-3.17364067 85.88944807 -3.17364067 85.88944807 -5.9375 84.9375 C-8 84 -8 84 -10 81 C-10.19905 78.47900291 -10.28340857 76.06826145 -10.2746582 73.546875 C-10.27976913 72.79047729 -10.28488007 72.03407959 -10.29014587 71.25476074 C-10.30405247 68.75309348 -10.30308453 66.25170133 -10.30078125 63.75 C-10.30466721 62.01269427 -10.30900167 60.27538948 -10.31376648 58.53808594 C-10.3212307 54.89645304 -10.32093568 51.2549171 -10.31567383 47.61328125 C-10.30987477 42.94229003 -10.32681961 38.27169477 -10.3500185 33.60076904 C-10.36473531 30.01315992 -10.36563043 26.42564665 -10.36250877 22.8380127 C-10.36302289 21.1155926 -10.36827744 19.39316726 -10.37832069 17.67077637 C-10.39063013 15.26462903 -10.38392738 12.85925948 -10.37231445 10.453125 C-10.38378006 9.38233704 -10.38378006 9.38233704 -10.39547729 8.28991699 C-10.36488184 5.4281325 -10.31468814 3.46312334 -8.68083191 1.05859375 C-5.77506955 -0.77146543 -3.34054058 -0.34942893 0 0 Z " fill="#FDFBFD" transform="translate(339,131)"/>
<path d="M0 0 C0.99 0.33 1.98 0.66 3 1 C3.33 2.65 3.66 4.3 4 6 C3.67 6 3.34 6 3 6 C2.67 40.98 2.34 75.96 2 112 C1.01 112.495 1.01 112.495 0 113 C0 75.71 0 38.42 0 0 Z " fill="#8045CD" transform="translate(193,310)"/>
<path d="M0 0 C0.66 0 1.32 0 2 0 C1.67 39.93 1.34 79.86 1 121 C-2.39988716 119.30005642 -3.44795768 115.48879135 -5.0625 112.1875 C-5.60874023 111.09985352 -5.60874023 111.09985352 -6.16601562 109.99023438 C-7.80982525 106.669192 -9.19650431 103.6341409 -10 100 C-9.34 100 -8.68 100 -8 100 C-7.38511719 101.39025391 -7.38511719 101.39025391 -6.7578125 102.80859375 C-6.21898437 104.00613281 -5.68015625 105.20367187 -5.125 106.4375 C-4.32449219 108.22994141 -4.32449219 108.22994141 -3.5078125 110.05859375 C-2.32272765 113.08527631 -2.32272765 113.08527631 0 114 C0 76.38 0 38.76 0 0 Z " fill="#702ECA" transform="translate(249,158)"/>
<path d="M0 0 C3.3 0.33 6.6 0.66 10 1 C9.67 1.99 9.34 2.98 9 4 C9.54527344 4.17015625 10.09054687 4.3403125 10.65234375 4.515625 C17.30603583 6.65390553 23.53866982 9.39413117 29.87109375 12.33203125 C30.84175781 12.77933594 31.81242187 13.22664062 32.8125 13.6875 C33.70582031 14.10386719 34.59914063 14.52023438 35.51953125 14.94921875 C37.6858289 15.8669102 39.70473064 16.51312468 42 17 C42 17.66 42 18.32 42 19 C42.556875 18.7525 43.11375 18.505 43.6875 18.25 C46 18 46 18 48.625 19.875 C49.40875 20.57625 50.1925 21.2775 51 22 C51.66 22.33 52.32 22.66 53 23 C53 23.66 53 24.32 53 25 C48.73154412 23.64478831 44.68075516 22.04435018 40.59765625 20.20703125 C40.00229568 19.93999893 39.40693512 19.67296661 38.79353333 19.39784241 C36.88174588 18.53922615 34.97198231 17.67622923 33.0625 16.8125 C31.7508366 16.22081534 30.43915034 15.62918135 29.12744141 15.03759766 C26.56616167 13.88139292 24.00601039 12.72273936 21.44677734 11.56201172 C18.58796908 10.26645603 15.72621325 8.97780521 12.86328125 7.69140625 C11.53346064 7.0868023 10.20398566 6.48143705 8.875 5.875 C7.23144531 5.12863281 7.23144531 5.12863281 5.5546875 4.3671875 C3 3 3 3 0 0 Z " fill="#7635D1" transform="translate(375,147)"/>
<path d="M0 0 C-2.93823196 1.52352768 -5.92254092 2.78534783 -9 4 C-8.93876492 13.82300018 -8.86164139 23.64573519 -8.76428509 33.46844769 C-8.71957562 38.02964699 -8.68032079 42.59075686 -8.65356445 47.15209961 C-8.62753718 51.55484586 -8.58713894 55.95724805 -8.53681374 60.35978127 C-8.5201411 62.03863047 -8.50862928 63.7175392 -8.50238609 65.39645958 C-8.49274915 67.74994265 -8.46469598 70.10254472 -8.43237305 72.45581055 C-8.43380814 73.1484903 -8.43524323 73.84117004 -8.4367218 74.55484009 C-8.35325716 78.85749239 -7.52885225 81.51742835 -5 85 C-8.875 83.25 -8.875 83.25 -10 81 C-10.1083987 78.54438778 -10.15730568 76.11669845 -10.16113281 73.66040039 C-10.16609772 72.90414871 -10.17106262 72.14789703 -10.17617798 71.36872864 C-10.19080874 68.86169533 -10.19760257 66.35472527 -10.203125 63.84765625 C-10.20887503 62.1089223 -10.21463278 60.37018837 -10.22039795 58.63145447 C-10.23091008 54.98387353 -10.23675158 51.33631466 -10.24023438 47.6887207 C-10.24572418 43.0098804 -10.26976157 38.33133037 -10.29820633 33.65258121 C-10.3168082 30.06069581 -10.32203696 26.46888073 -10.32357025 22.87695122 C-10.3266021 21.15173185 -10.3346485 19.42651387 -10.34775543 17.70134163 C-10.36476756 15.29033271 -10.36294801 12.88003834 -10.35644531 10.46899414 C-10.3656601 9.75356445 -10.37487488 9.03813477 -10.3843689 8.30102539 C-10.36019813 5.44723571 -10.30518454 3.46188271 -8.70819092 1.04490662 C-5.92279504 -0.65893021 -3.17015716 -0.17944286 0 0 Z " fill="#F1CFFF" transform="translate(339,131)"/>
<path d="M0 0 C-3.69832799 1.92134897 -7.39707518 3.84188795 -11.09619141 5.76171875 C-12.35118615 6.41319589 -13.60607156 7.06488368 -14.86083984 7.71679688 C-21.55047412 11.19220847 -28.24363656 14.6556001 -35 18 C-35 17.34 -35 16.68 -35 16 C-33.02 15.34 -31.04 14.68 -29 14 C-29.33 12.68 -29.66 11.36 -30 10 C-29.01 9.34 -28.02 8.68 -27 8 C-26.01 8.99 -25.02 9.98 -24 11 C-23.67 10.01 -23.34 9.02 -23 8 C-22.319375 7.9175 -21.63875 7.835 -20.9375 7.75 C-16.33500153 6.57489401 -12.38455749 4.38455749 -9 1 C-3.57692308 -1.19230769 -3.57692308 -1.19230769 0 0 Z " fill="#7538CD" transform="translate(290,136)"/>
<path d="M0 0 C2.64 0.33 5.28 0.66 8 1 C8 1.66 8 2.32 8 3 C9.65 3 11.3 3 13 3 C13 3.66 13 4.32 13 5 C18.10334017 6.905247 22.46342706 8.42589023 28 8 C28.99 9.98 29.98 11.96 31 14 C23.87330583 11.87449472 17.33840943 8.91814787 10.6484375 5.71875 C7.13925572 4.04464493 3.58250861 2.51036353 0 1 C0 0.67 0 0.34 0 0 Z " fill="#7B3AD3" transform="translate(446,180)"/>
<path d="M0 0 C0.66 0.33 1.32 0.66 2 1 C0.21326795 2.5058745 -1.57953508 4.0045485 -3.375 5.5 C-4.87160156 6.75296875 -4.87160156 6.75296875 -6.3984375 8.03125 C-9 10 -9 10 -11 10 C-11 10.66 -11 11.32 -11 12 C-11.66 12 -12.32 12 -13 12 C-13.33 13.32 -13.66 14.64 -14 16 C-16.64 16.66 -19.28 17.32 -22 18 C-17.78499078 13.51468958 -13.09996505 9.8811137 -8.1875 6.1875 C-7.00510742 5.2912793 -7.00510742 5.2912793 -5.79882812 4.37695312 C-3.86843905 2.91453716 -1.93547516 1.45567384 0 0 Z " fill="#783ACF" transform="translate(433,419)"/>
<path d="M0 0 C1.32 0 2.64 0 4 0 C4 0.66 4 1.32 4 2 C7.465 1.505 7.465 1.505 11 1 C11 1.99 11 2.98 11 4 C13.97 4.99 16.94 5.98 20 7 C20 7.99 20 8.98 20 10 C13.06001352 7.83836487 6.56882431 5.1063786 0 2 C0 1.34 0 0.68 0 0 Z " fill="#7B3AD4" transform="translate(353,137)"/>
<path d="M0 0 C0.474375 0.495 0.94875 0.99 1.4375 1.5 C1.1075 2.16 0.7775 2.82 0.4375 3.5 C-0.2225 2.84 -0.8825 2.18 -1.5625 1.5 C-7.53242292 0.6732301 -12.39914475 1.23893352 -17.5625 4.5 C-17.375 2.625 -17.375 2.625 -16.5625 0.5 C-11.77637897 -2.49132564 -4.85636923 -2.84275272 0 0 Z " fill="#793AD0" transform="translate(308.5625,130.5)"/>
<path d="M0 0 C-0.33 0.66 -0.66 1.32 -1 2 C-1.845625 1.505 -2.69125 1.01 -3.5625 0.5 C-7.39489604 -1.17231827 -9.86240181 -1.39033945 -14 -1 C-14.99 -0.34 -15.98 0.32 -17 1 C-17.33 -0.32 -17.66 -1.64 -18 -3 C-11.7338678 -5.34979958 -5.49467982 -3.15944089 0 0 Z " fill="#7431D2" transform="translate(346,133)"/>
<path d="M0 0 C1.32 0.99 2.64 1.98 4 3 C4.33 2.01 4.66 1.02 5 0 C5 1.32 5 2.64 5 4 C1.04 5.98 -2.92 7.96 -7 10 C-7 9.34 -7 8.68 -7 8 C-5.02 7.34 -3.04 6.68 -1 6 C-1.20625 5.38125 -1.4125 4.7625 -1.625 4.125 C-1.74875 3.42375 -1.8725 2.7225 -2 2 C-1.34 1.34 -0.68 0.68 0 0 Z " fill="#722AD6" transform="translate(262,144)"/>
<path d="M0 0 C3.93657242 1.43213512 7.28931356 3.30332154 10.8125 5.5625 C12.27623047 6.49255859 12.27623047 6.49255859 13.76953125 7.44140625 C14.50558594 7.95574219 15.24164063 8.47007812 16 9 C16 9.33 16 9.66 16 10 C14.35 10 12.7 10 11 10 C11 9.01 11 8.02 11 7 C9.35 6.67 7.7 6.34 6 6 C6 5.34 6 4.68 6 4 C5.01 4 4.02 4 3 4 C3 3.34 3 2.68 3 2 C2.01 2 1.02 2 0 2 C0 1.34 0 0.68 0 0 Z " fill="#7738D9" transform="translate(269,475)"/>
<path d="M0 0 C2.35082212 2.89642841 3.83519406 5.65356331 5.1875 9.125 C5.53167969 9.99382812 5.87585938 10.86265625 6.23046875 11.7578125 C7 14 7 14 7 16 C5 16 5 16 3.4375 14.9375 C1.33977397 12.11013014 1.35250064 9.46625631 1 6 C0.6725678 3.99902542 0.34123581 1.99866686 0 0 Z " fill="#7D38D6" transform="translate(238,415)"/>
<path d="M0 0 C1.32 0.33 2.64 0.66 4 1 C2.39805929 1.98280415 0.79336258 2.96111717 -0.8125 3.9375 C-2.15248047 4.75541016 -2.15248047 4.75541016 -3.51953125 5.58984375 C-6 7 -6 7 -9 8 C-8.67 6.35 -8.34 4.7 -8 3 C-6.865625 2.87625 -5.73125 2.7525 -4.5625 2.625 C-3.386875 2.41875 -2.21125 2.2125 -1 2 C-0.67 1.34 -0.34 0.68 0 0 Z " fill="#7231D3" transform="translate(155,201)"/>
<path d="M0 0 C5.69139902 1.09698167 10.74567937 2.54053077 16 5 C12.52176885 6.15941038 10.54104422 5.70820884 7 5 C7 4.34 7 3.68 7 3 C5.824375 2.814375 5.824375 2.814375 4.625 2.625 C2 2 2 2 0 0 Z " fill="#7632D3" transform="translate(474,270)"/>
<path d="M0 0 C1.32 0.66 2.64 1.32 4 2 C1.03 4.31 -1.94 6.62 -5 9 C-5.33 8.01 -5.66 7.02 -6 6 C-5.195625 5.38125 -4.39125 4.7625 -3.5625 4.125 C-0.96125481 2.25835959 -0.96125481 2.25835959 0 0 Z " fill="#F4E2FD" transform="translate(396,443)"/>
<path d="M0 0 C0.99 0 1.98 0 3 0 C2.67 1.32 2.34 2.64 2 4 C-0.64 4.66 -3.28 5.32 -6 6 C-4 4 -2 2 0 0 Z " fill="#7631DB" transform="translate(417,431)"/>
<path d="M0 0 C4.12838068 0.60711481 7.40422382 1.87522317 11 4 C11.33 4.99 11.66 5.98 12 7 C7.69235185 5.43358249 3.93828536 3.31663844 0 1 C0 0.67 0 0.34 0 0 Z " fill="#EDD6FC" transform="translate(277,479)"/>
<path d="M0 0 C-2.93720508 1.52299523 -5.9168649 2.80100302 -9 4 C-9 6.31 -9 8.62 -9 11 C-9.33 11 -9.66 11 -10 11 C-10.36010591 3.67784643 -10.36010591 3.67784643 -8.9375 1 C-5.97912322 -0.52690415 -3.26283401 -0.18468872 0 0 Z " fill="#E6C6FC" transform="translate(339,131)"/>
<path d="M0 0 C0.66 0 1.32 0 2 0 C3.49821059 3.37097383 4 5.20442119 4 9 C3.34 9 2.68 9 2 9 C1.690625 8.21625 1.38125 7.4325 1.0625 6.625 C0.07124962 4.07669872 0.07124962 4.07669872 -1 2 C-0.67 1.34 -0.34 0.68 0 0 Z " fill="#7B39DA" transform="translate(221,375)"/>
<path d="M0 0 C-1.45537568 0.83848804 -2.91440373 1.67063934 -4.375 2.5 C-5.59316406 3.19609375 -5.59316406 3.19609375 -6.8359375 3.90625 C-9 5 -9 5 -11 5 C-11 4.34 -11 3.68 -11 3 C-7.34895956 -0.25985754 -4.7197224 -1.5732408 0 0 Z " fill="#7634CF" transform="translate(179,192)"/>
<path d="M0 0 C0.99 0 1.98 0 3 0 C3.66 2.31 4.32 4.62 5 7 C4.01 7.495 4.01 7.495 3 8 C2.67 6.02 2.34 4.04 2 2 C1.34 2 0.68 2 0 2 C0 1.34 0 0.68 0 0 Z " fill="#803ADD" transform="translate(195,315)"/>
<path d="M0 0 C2.97 0.33 5.94 0.66 9 1 C9 1.99 9 2.98 9 4 C6.03 3.01 3.06 2.02 0 1 C0 0.67 0 0.34 0 0 Z " fill="#803FD7" transform="translate(408,163)"/>
</svg>
